<?xml version="1.0" encoding="utf-8"?>
<!-- Generator: Adobe Illustrator 16.0.0, SVG Export Plug-In . SVG Version: 6.00 Build 0)  -->
<!DOCTYPE svg PUBLIC "-//W3C//DTD SVG 1.1//EN" "http://www.w3.org/Graphics/SVG/1.1/DTD/svg11.dtd">
<svg version="1.1" id="图层_1" xmlns="http://www.w3.org/2000/svg" xmlns:xlink="http://www.w3.org/1999/xlink" x="0px" y="0px"
	 width="110px" height="40px" viewBox="0 0 110 40" enable-background="new 0 0 110 40" xml:space="preserve">
<g>
	<linearGradient id="SVGID_1_" gradientUnits="userSpaceOnUse" x1="23.2041" y1="6.2935" x2="23.2041" y2="36.2935">
		<stop  offset="0.4462" style="stop-color:#2E6FB7"/>
		<stop  offset="0.4565" style="stop-color:#2F70B8"/>
		<stop  offset="1" style="stop-color:#5BA9D9"/>
	</linearGradient>
	<path fill="url(#SVGID_1_)" d="M8.886,6.358c0,0-4.465,0.094-2.987,4.96l16.765,24.974h8.748L16.146,13.112h11.405l8.37,13.332
		l4.888-7.744L33.952,7.513c0,0-0.495-1.15-2.33-1.204c-0.383-0.011-1.588-0.015-3.258-0.015C22.001,6.293,8.886,6.358,8.886,6.358"
		/>
	<linearGradient id="SVGID_2_" gradientUnits="userSpaceOnUse" x1="22.5576" y1="21.3096" x2="61.248" y2="21.3096">
		<stop  offset="0" style="stop-color:#2E6FB7"/>
		<stop  offset="0.3909" style="stop-color:#3794CE"/>
		<stop  offset="0.7818" style="stop-color:#3FB3E2"/>
		<stop  offset="1" style="stop-color:#42BFE9"/>
	</linearGradient>
	<path fill="url(#SVGID_2_)" d="M38.181,9.404L22.558,36.293h8.906l10.521-18.708L52.5,36.293h8.748l-15.3-26.571
		c0,0-1.461-3.306-3.379-3.387c-0.121-0.005-0.239-0.009-0.354-0.009C40.53,6.326,39.601,6.938,38.181,9.404"/>
	<linearGradient id="SVGID_3_" gradientUnits="userSpaceOnUse" x1="63.7383" y1="27.6533" x2="81.3252" y2="27.6533">
		<stop  offset="0" style="stop-color:#63BBE3"/>
		<stop  offset="1" style="stop-color:#5BA9D9"/>
	</linearGradient>
	<path fill="url(#SVGID_3_)" d="M81.325,33.756c0,0.753-0.309,1.364-0.93,1.832c-0.62,0.469-1.502,0.704-2.65,0.704H63.738v-4.029
		h13.076v-2.791h-8.821c-2.762,0-4.145-1.023-4.145-3.071v-4.285c0-2.067,1.721-3.101,5.16-3.101H79.86v4.032H68.473v2.846h8.935
		c2.611,0,3.918,1.006,3.918,3.018V33.756z"/>
	<linearGradient id="SVGID_4_" gradientUnits="userSpaceOnUse" x1="83.8633" y1="27.625" x2="99.4199" y2="27.625">
		<stop  offset="0" style="stop-color:#57A0D1"/>
		<stop  offset="1" style="stop-color:#4C8CC4"/>
	</linearGradient>
	<polygon fill="url(#SVGID_4_)" points="99.42,23.074 88.737,23.074 88.737,25.808 99.362,25.808 99.362,29.273 88.737,29.273 
		88.737,32.18 99.335,32.18 99.335,36.236 83.863,36.236 83.863,19.015 99.42,19.015 	"/>
	<rect x="101.661" y="19.015" fill="#4882BE" width="4.934" height="17.278"/>
</g>
</svg>
